<mxfile host="Electron" agent="Mozilla/5.0 (Macintosh; Intel Mac OS X 10_15_7) AppleWebKit/537.36 (KHTML, like Gecko) draw.io/24.7.17 Chrome/128.0.6613.36 Electron/32.0.1 Safari/537.36" version="24.7.17">
  <diagram name="Page-1" id="yN6AiaMiEVTuU8BqSs5U">
    <mxGraphModel dx="2233" dy="761" grid="1" gridSize="10" guides="1" tooltips="1" connect="1" arrows="1" fold="1" page="1" pageScale="1" pageWidth="827" pageHeight="1169" math="0" shadow="0">
      <root>
        <mxCell id="0" />
        <mxCell id="1" parent="0" />
        <mxCell id="WmhXCu2DBAaIaXTtpWCs-1" value="START" style="strokeWidth=2;html=1;shape=mxgraph.flowchart.start_1;whiteSpace=wrap;" parent="1" vertex="1">
          <mxGeometry x="-104" y="60" width="160" height="60" as="geometry" />
        </mxCell>
        <mxCell id="WmhXCu2DBAaIaXTtpWCs-3" value="Please enter your name&amp;nbsp;" style="shape=parallelogram;html=1;strokeWidth=2;perimeter=parallelogramPerimeter;whiteSpace=wrap;rounded=1;arcSize=12;size=0.23;" parent="1" vertex="1">
          <mxGeometry x="-123" y="191" width="190" height="60" as="geometry" />
        </mxCell>
        <mxCell id="WmhXCu2DBAaIaXTtpWCs-4" value="" style="endArrow=classic;html=1;rounded=0;" parent="1" edge="1">
          <mxGeometry width="50" height="50" relative="1" as="geometry">
            <mxPoint x="-26" y="252" as="sourcePoint" />
            <mxPoint x="-26" y="322" as="targetPoint" />
          </mxGeometry>
        </mxCell>
        <mxCell id="WmhXCu2DBAaIaXTtpWCs-5" value="&lt;div&gt;&lt;br&gt;&lt;/div&gt;&lt;span style=&quot;background-color: initial;&quot;&gt;Please select a&amp;nbsp;&lt;/span&gt;&lt;div&gt;&lt;span style=&quot;background-color: initial;&quot;&gt;destination:&lt;/span&gt;&lt;div&gt;&lt;span style=&quot;background-color: initial;&quot;&gt;1 - London: £10.15&amp;nbsp;&lt;/span&gt;&lt;div&gt;&lt;div&gt;2 - Manchester: £22.50&amp;nbsp;&lt;/div&gt;&lt;div&gt;3 - Birmingham: £21.40&lt;/div&gt;&lt;div&gt;&lt;br&gt;&lt;/div&gt;&lt;/div&gt;&lt;/div&gt;&lt;/div&gt;" style="shape=parallelogram;html=1;strokeWidth=2;perimeter=parallelogramPerimeter;whiteSpace=wrap;rounded=1;arcSize=12;size=0.23;" parent="1" vertex="1">
          <mxGeometry x="-140" y="459" width="217" height="90" as="geometry" />
        </mxCell>
        <mxCell id="WmhXCu2DBAaIaXTtpWCs-6" value="" style="endArrow=classic;html=1;rounded=0;" parent="1" edge="1">
          <mxGeometry width="50" height="50" relative="1" as="geometry">
            <mxPoint x="-427.55999999999995" y="1591" as="sourcePoint" />
            <mxPoint x="-427.55999999999995" y="1661" as="targetPoint" />
          </mxGeometry>
        </mxCell>
        <mxCell id="WmhXCu2DBAaIaXTtpWCs-7" value="Is the selected destination valid?" style="strokeWidth=2;html=1;shape=mxgraph.flowchart.decision;whiteSpace=wrap;" parent="1" vertex="1">
          <mxGeometry x="-141" y="621" width="230" height="160" as="geometry" />
        </mxCell>
        <mxCell id="WmhXCu2DBAaIaXTtpWCs-9" value="" style="shape=partialRectangle;whiteSpace=wrap;html=1;bottom=0;right=0;fillColor=none;rotation=-180;" parent="1" vertex="1">
          <mxGeometry x="90" y="420" width="45" height="280" as="geometry" />
        </mxCell>
        <mxCell id="WmhXCu2DBAaIaXTtpWCs-13" value="Yes" style="text;strokeColor=none;align=center;fillColor=none;html=1;verticalAlign=middle;whiteSpace=wrap;rounded=0;" parent="1" vertex="1">
          <mxGeometry x="-607" y="1710" width="60" height="30" as="geometry" />
        </mxCell>
        <mxCell id="WmhXCu2DBAaIaXTtpWCs-19" value="Did the user select destination 1&amp;nbsp;&lt;div&gt;(London)&lt;/div&gt;" style="strokeWidth=2;html=1;shape=mxgraph.flowchart.decision;whiteSpace=wrap;" parent="1" vertex="1">
          <mxGeometry x="-337" y="762" width="230" height="160" as="geometry" />
        </mxCell>
        <mxCell id="WmhXCu2DBAaIaXTtpWCs-22" value="Yes" style="text;strokeColor=none;align=center;fillColor=none;html=1;verticalAlign=middle;whiteSpace=wrap;rounded=0;" parent="1" vertex="1">
          <mxGeometry x="-204" y="660" width="60" height="30" as="geometry" />
        </mxCell>
        <mxCell id="WmhXCu2DBAaIaXTtpWCs-48" value="Did the user request a receipt&amp;nbsp;" style="strokeWidth=2;html=1;shape=mxgraph.flowchart.decision;whiteSpace=wrap;" parent="1" vertex="1">
          <mxGeometry x="-542" y="1663" width="230" height="160" as="geometry" />
        </mxCell>
        <mxCell id="WmhXCu2DBAaIaXTtpWCs-49" value="" style="edgeStyle=segmentEdgeStyle;endArrow=classic;html=1;curved=0;rounded=0;endSize=8;startSize=8;exitX=0;exitY=0.5;exitDx=0;exitDy=0;exitPerimeter=0;" parent="1" edge="1">
          <mxGeometry width="50" height="50" relative="1" as="geometry">
            <mxPoint x="-542" y="1743" as="sourcePoint" />
            <mxPoint x="-627" y="1802" as="targetPoint" />
          </mxGeometry>
        </mxCell>
        <mxCell id="WmhXCu2DBAaIaXTtpWCs-58" value="" style="edgeStyle=segmentEdgeStyle;endArrow=classic;html=1;curved=0;rounded=0;endSize=8;startSize=8;" parent="1" edge="1">
          <mxGeometry width="50" height="50" relative="1" as="geometry">
            <mxPoint x="-311" y="1742" as="sourcePoint" />
            <mxPoint x="-225" y="1807" as="targetPoint" />
            <Array as="points">
              <mxPoint x="-225" y="1742" />
              <mxPoint x="-225" y="1802" />
            </Array>
          </mxGeometry>
        </mxCell>
        <mxCell id="WmhXCu2DBAaIaXTtpWCs-59" value="No" style="text;strokeColor=none;align=center;fillColor=none;html=1;verticalAlign=middle;whiteSpace=wrap;rounded=0;" parent="1" vertex="1">
          <mxGeometry x="-297" y="1710" width="60" height="30" as="geometry" />
        </mxCell>
        <mxCell id="WmhXCu2DBAaIaXTtpWCs-66" value="" style="edgeStyle=segmentEdgeStyle;endArrow=classic;html=1;curved=0;rounded=0;endSize=8;startSize=8;" parent="1" edge="1">
          <mxGeometry width="50" height="50" relative="1" as="geometry">
            <mxPoint x="-143" y="700" as="sourcePoint" />
            <mxPoint x="-223" y="760" as="targetPoint" />
          </mxGeometry>
        </mxCell>
        <mxCell id="WmhXCu2DBAaIaXTtpWCs-71" value="Add total cost of tickets &amp;amp;&lt;div&gt;quantity to basket&lt;/div&gt;" style="rounded=1;whiteSpace=wrap;html=1;absoluteArcSize=1;arcSize=14;strokeWidth=2;" parent="1" vertex="1">
          <mxGeometry x="-513" y="1208" width="184" height="82" as="geometry" />
        </mxCell>
        <mxCell id="WmhXCu2DBAaIaXTtpWCs-73" value="Display transaction&amp;nbsp;&lt;div&gt;summary&lt;/div&gt;&lt;div&gt;(destination, amount of&amp;nbsp;&lt;/div&gt;&lt;div&gt;tickets &amp;amp; total price)&lt;/div&gt;" style="shape=parallelogram;html=1;strokeWidth=2;perimeter=parallelogramPerimeter;whiteSpace=wrap;rounded=1;arcSize=12;size=0.23;" parent="1" vertex="1">
          <mxGeometry x="-526" y="1364" width="200" height="81" as="geometry" />
        </mxCell>
        <mxCell id="WmhXCu2DBAaIaXTtpWCs-74" value="Enter the required amount&amp;nbsp;&lt;div&gt;of tickets you would like to&amp;nbsp;&lt;/div&gt;&lt;div&gt;purchase&lt;/div&gt;" style="shape=parallelogram;html=1;strokeWidth=2;perimeter=parallelogramPerimeter;whiteSpace=wrap;rounded=1;arcSize=12;size=0.23;" parent="1" vertex="1">
          <mxGeometry x="-531" y="902" width="220" height="78" as="geometry" />
        </mxCell>
        <mxCell id="WmhXCu2DBAaIaXTtpWCs-87" value="Ask the user if they would&amp;nbsp;&lt;div&gt;like a receipt (yes/no)&lt;/div&gt;" style="shape=parallelogram;html=1;strokeWidth=2;perimeter=parallelogramPerimeter;whiteSpace=wrap;rounded=1;arcSize=12;size=0.23;" parent="1" vertex="1">
          <mxGeometry x="-529" y="1517" width="200" height="73" as="geometry" />
        </mxCell>
        <mxCell id="WmhXCu2DBAaIaXTtpWCs-137" value="Multiply cost of ticket by&amp;nbsp;&lt;div&gt;quantity&amp;nbsp;&lt;/div&gt;" style="rounded=1;whiteSpace=wrap;html=1;absoluteArcSize=1;arcSize=14;strokeWidth=2;" parent="1" vertex="1">
          <mxGeometry x="-515" y="1053" width="184" height="82" as="geometry" />
        </mxCell>
        <mxCell id="WmhXCu2DBAaIaXTtpWCs-412" value="No" style="text;strokeColor=none;align=center;fillColor=none;html=1;verticalAlign=middle;whiteSpace=wrap;rounded=0;" parent="1" vertex="1">
          <mxGeometry x="67" y="660" width="60" height="30" as="geometry" />
        </mxCell>
        <mxCell id="n7q72ueywLvYxVkYM5tx-1" value="Welcome to National&amp;nbsp;&lt;div&gt;Railway {Name}&lt;/div&gt;" style="shape=parallelogram;html=1;strokeWidth=2;perimeter=parallelogramPerimeter;whiteSpace=wrap;rounded=1;arcSize=12;size=0.23;" parent="1" vertex="1">
          <mxGeometry x="-124" y="325" width="190" height="60" as="geometry" />
        </mxCell>
        <mxCell id="n7q72ueywLvYxVkYM5tx-2" value="" style="endArrow=classic;html=1;rounded=0;" parent="1" edge="1">
          <mxGeometry width="50" height="50" relative="1" as="geometry">
            <mxPoint x="-25.559999999999945" y="121" as="sourcePoint" />
            <mxPoint x="-25.559999999999945" y="191" as="targetPoint" />
          </mxGeometry>
        </mxCell>
        <mxCell id="n7q72ueywLvYxVkYM5tx-3" value="" style="endArrow=classic;html=1;rounded=0;" parent="1" edge="1">
          <mxGeometry width="50" height="50" relative="1" as="geometry">
            <mxPoint x="-26.559999999999945" y="386" as="sourcePoint" />
            <mxPoint x="-26.559999999999945" y="456" as="targetPoint" />
          </mxGeometry>
        </mxCell>
        <mxCell id="n7q72ueywLvYxVkYM5tx-4" value="" style="endArrow=classic;html=1;rounded=0;" parent="1" edge="1">
          <mxGeometry width="50" height="50" relative="1" as="geometry">
            <mxPoint x="-26.559999999999945" y="549" as="sourcePoint" />
            <mxPoint x="-26.559999999999945" y="619" as="targetPoint" />
          </mxGeometry>
        </mxCell>
        <mxCell id="n7q72ueywLvYxVkYM5tx-5" value="" style="endArrow=classic;html=1;rounded=0;" parent="1" edge="1">
          <mxGeometry width="50" height="50" relative="1" as="geometry">
            <mxPoint x="135" y="420.89" as="sourcePoint" />
            <mxPoint x="-27" y="421" as="targetPoint" />
          </mxGeometry>
        </mxCell>
        <mxCell id="n7q72ueywLvYxVkYM5tx-6" value="" style="edgeStyle=segmentEdgeStyle;endArrow=classic;html=1;curved=0;rounded=0;endSize=8;startSize=8;exitX=0;exitY=0.5;exitDx=0;exitDy=0;exitPerimeter=0;" parent="1" source="WmhXCu2DBAaIaXTtpWCs-19" edge="1">
          <mxGeometry width="50" height="50" relative="1" as="geometry">
            <mxPoint x="-346" y="841" as="sourcePoint" />
            <mxPoint x="-426" y="901" as="targetPoint" />
          </mxGeometry>
        </mxCell>
        <mxCell id="n7q72ueywLvYxVkYM5tx-7" value="Yes" style="text;strokeColor=none;align=center;fillColor=none;html=1;verticalAlign=middle;whiteSpace=wrap;rounded=0;" parent="1" vertex="1">
          <mxGeometry x="-397" y="810" width="60" height="30" as="geometry" />
        </mxCell>
        <mxCell id="n7q72ueywLvYxVkYM5tx-8" value="" style="endArrow=classic;html=1;rounded=0;" parent="1" edge="1">
          <mxGeometry width="50" height="50" relative="1" as="geometry">
            <mxPoint x="-426.99999999999994" y="981" as="sourcePoint" />
            <mxPoint x="-426.99999999999994" y="1051" as="targetPoint" />
          </mxGeometry>
        </mxCell>
        <mxCell id="n7q72ueywLvYxVkYM5tx-9" value="" style="endArrow=classic;html=1;rounded=0;" parent="1" edge="1">
          <mxGeometry width="50" height="50" relative="1" as="geometry">
            <mxPoint x="-427.55999999999995" y="1136" as="sourcePoint" />
            <mxPoint x="-427.55999999999995" y="1206" as="targetPoint" />
          </mxGeometry>
        </mxCell>
        <mxCell id="n7q72ueywLvYxVkYM5tx-10" value="" style="endArrow=classic;html=1;rounded=0;" parent="1" edge="1">
          <mxGeometry width="50" height="50" relative="1" as="geometry">
            <mxPoint x="-427.55999999999995" y="1291" as="sourcePoint" />
            <mxPoint x="-427.55999999999995" y="1361" as="targetPoint" />
          </mxGeometry>
        </mxCell>
        <mxCell id="n7q72ueywLvYxVkYM5tx-11" value="" style="endArrow=classic;html=1;rounded=0;" parent="1" edge="1">
          <mxGeometry width="50" height="50" relative="1" as="geometry">
            <mxPoint x="-428.55999999999995" y="1445" as="sourcePoint" />
            <mxPoint x="-428.55999999999995" y="1515" as="targetPoint" />
          </mxGeometry>
        </mxCell>
        <mxCell id="n7q72ueywLvYxVkYM5tx-12" value="Display &quot;Thanks for&amp;nbsp;&lt;div&gt;shopping with&lt;/div&gt;&lt;div&gt;National Railway&quot; message&amp;nbsp;&lt;div&gt;&lt;br&gt;&lt;/div&gt;&lt;/div&gt;" style="shape=parallelogram;html=1;strokeWidth=2;perimeter=parallelogramPerimeter;whiteSpace=wrap;rounded=1;arcSize=12;size=0.23;" parent="1" vertex="1">
          <mxGeometry x="-334" y="1810" width="209" height="81" as="geometry" />
        </mxCell>
        <mxCell id="n7q72ueywLvYxVkYM5tx-13" value="Generate receipt (user name,&lt;div&gt;destination, total amount of tickets, total price)&amp;nbsp;&lt;/div&gt;" style="rounded=1;whiteSpace=wrap;html=1;absoluteArcSize=1;arcSize=14;strokeWidth=2;" parent="1" vertex="1">
          <mxGeometry x="-717" y="1805" width="184" height="82" as="geometry" />
        </mxCell>
        <mxCell id="n7q72ueywLvYxVkYM5tx-14" value="" style="endArrow=classic;html=1;rounded=0;" parent="1" edge="1">
          <mxGeometry width="50" height="50" relative="1" as="geometry">
            <mxPoint x="-626.3799999999999" y="1888" as="sourcePoint" />
            <mxPoint x="-626.3799999999999" y="1958" as="targetPoint" />
          </mxGeometry>
        </mxCell>
        <mxCell id="n7q72ueywLvYxVkYM5tx-15" value="Print receipt to file&amp;nbsp;" style="shape=parallelogram;html=1;strokeWidth=2;perimeter=parallelogramPerimeter;whiteSpace=wrap;rounded=1;arcSize=12;size=0.23;" parent="1" vertex="1">
          <mxGeometry x="-740" y="1960" width="209" height="81" as="geometry" />
        </mxCell>
        <mxCell id="n7q72ueywLvYxVkYM5tx-17" value="" style="edgeStyle=segmentEdgeStyle;endArrow=classic;html=1;curved=0;rounded=0;endSize=8;startSize=8;exitX=1;exitY=0.5;exitDx=0;exitDy=0;exitPerimeter=0;" parent="1" source="WmhXCu2DBAaIaXTtpWCs-19" edge="1">
          <mxGeometry width="50" height="50" relative="1" as="geometry">
            <mxPoint x="300" y="840" as="sourcePoint" />
            <mxPoint x="360" y="880" as="targetPoint" />
          </mxGeometry>
        </mxCell>
        <mxCell id="n7q72ueywLvYxVkYM5tx-18" value="" style="endArrow=classic;html=1;rounded=0;" parent="1" edge="1">
          <mxGeometry width="50" height="50" relative="1" as="geometry">
            <mxPoint x="156.44000000000005" y="1712" as="sourcePoint" />
            <mxPoint x="156.44000000000005" y="1782" as="targetPoint" />
          </mxGeometry>
        </mxCell>
        <mxCell id="n7q72ueywLvYxVkYM5tx-19" value="Yes" style="text;strokeColor=none;align=center;fillColor=none;html=1;verticalAlign=middle;whiteSpace=wrap;rounded=0;" parent="1" vertex="1">
          <mxGeometry x="-23" y="1831" width="60" height="30" as="geometry" />
        </mxCell>
        <mxCell id="n7q72ueywLvYxVkYM5tx-20" value="Did the user select destination 2&amp;nbsp;&lt;div&gt;(Manchester)&lt;/div&gt;" style="strokeWidth=2;html=1;shape=mxgraph.flowchart.decision;whiteSpace=wrap;" parent="1" vertex="1">
          <mxGeometry x="247" y="883" width="230" height="160" as="geometry" />
        </mxCell>
        <mxCell id="n7q72ueywLvYxVkYM5tx-21" value="Did the user request a receipt&amp;nbsp;" style="strokeWidth=2;html=1;shape=mxgraph.flowchart.decision;whiteSpace=wrap;" parent="1" vertex="1">
          <mxGeometry x="42" y="1784" width="230" height="160" as="geometry" />
        </mxCell>
        <mxCell id="n7q72ueywLvYxVkYM5tx-22" value="" style="edgeStyle=segmentEdgeStyle;endArrow=classic;html=1;curved=0;rounded=0;endSize=8;startSize=8;exitX=0;exitY=0.5;exitDx=0;exitDy=0;exitPerimeter=0;" parent="1" edge="1">
          <mxGeometry width="50" height="50" relative="1" as="geometry">
            <mxPoint x="42" y="1864" as="sourcePoint" />
            <mxPoint x="-43" y="1923" as="targetPoint" />
          </mxGeometry>
        </mxCell>
        <mxCell id="n7q72ueywLvYxVkYM5tx-23" value="" style="edgeStyle=segmentEdgeStyle;endArrow=classic;html=1;curved=0;rounded=0;endSize=8;startSize=8;" parent="1" edge="1">
          <mxGeometry width="50" height="50" relative="1" as="geometry">
            <mxPoint x="273" y="1863" as="sourcePoint" />
            <mxPoint x="359" y="1928" as="targetPoint" />
            <Array as="points">
              <mxPoint x="359" y="1863" />
              <mxPoint x="359" y="1923" />
            </Array>
          </mxGeometry>
        </mxCell>
        <mxCell id="n7q72ueywLvYxVkYM5tx-24" value="No" style="text;strokeColor=none;align=center;fillColor=none;html=1;verticalAlign=middle;whiteSpace=wrap;rounded=0;" parent="1" vertex="1">
          <mxGeometry x="287" y="1831" width="60" height="30" as="geometry" />
        </mxCell>
        <mxCell id="n7q72ueywLvYxVkYM5tx-25" value="Add total cost of tickets &amp;amp;&lt;div&gt;quantity to basket&lt;/div&gt;" style="rounded=1;whiteSpace=wrap;html=1;absoluteArcSize=1;arcSize=14;strokeWidth=2;" parent="1" vertex="1">
          <mxGeometry x="71" y="1329" width="184" height="82" as="geometry" />
        </mxCell>
        <mxCell id="n7q72ueywLvYxVkYM5tx-26" value="Display transaction&amp;nbsp;&lt;div&gt;summary&lt;/div&gt;&lt;div&gt;(destination, amount of&amp;nbsp;&lt;/div&gt;&lt;div&gt;tickets &amp;amp; total price)&lt;/div&gt;" style="shape=parallelogram;html=1;strokeWidth=2;perimeter=parallelogramPerimeter;whiteSpace=wrap;rounded=1;arcSize=12;size=0.23;" parent="1" vertex="1">
          <mxGeometry x="58" y="1485" width="200" height="81" as="geometry" />
        </mxCell>
        <mxCell id="n7q72ueywLvYxVkYM5tx-27" value="Enter the required amount&amp;nbsp;&lt;div&gt;of tickets you would like to&amp;nbsp;&lt;/div&gt;&lt;div&gt;purchase&lt;/div&gt;" style="shape=parallelogram;html=1;strokeWidth=2;perimeter=parallelogramPerimeter;whiteSpace=wrap;rounded=1;arcSize=12;size=0.23;" parent="1" vertex="1">
          <mxGeometry x="53" y="1023" width="220" height="78" as="geometry" />
        </mxCell>
        <mxCell id="n7q72ueywLvYxVkYM5tx-28" value="Ask the user if they would&amp;nbsp;&lt;div&gt;like a receipt (yes/no)&lt;/div&gt;" style="shape=parallelogram;html=1;strokeWidth=2;perimeter=parallelogramPerimeter;whiteSpace=wrap;rounded=1;arcSize=12;size=0.23;" parent="1" vertex="1">
          <mxGeometry x="55" y="1638" width="200" height="73" as="geometry" />
        </mxCell>
        <mxCell id="n7q72ueywLvYxVkYM5tx-29" value="Multiply cost of ticket by&amp;nbsp;&lt;div&gt;quantity&amp;nbsp;&lt;/div&gt;" style="rounded=1;whiteSpace=wrap;html=1;absoluteArcSize=1;arcSize=14;strokeWidth=2;" parent="1" vertex="1">
          <mxGeometry x="69" y="1174" width="184" height="82" as="geometry" />
        </mxCell>
        <mxCell id="n7q72ueywLvYxVkYM5tx-30" value="" style="edgeStyle=segmentEdgeStyle;endArrow=classic;html=1;curved=0;rounded=0;endSize=8;startSize=8;exitX=0;exitY=0.5;exitDx=0;exitDy=0;exitPerimeter=0;" parent="1" source="n7q72ueywLvYxVkYM5tx-20" edge="1">
          <mxGeometry width="50" height="50" relative="1" as="geometry">
            <mxPoint x="238" y="962" as="sourcePoint" />
            <mxPoint x="158" y="1022" as="targetPoint" />
          </mxGeometry>
        </mxCell>
        <mxCell id="n7q72ueywLvYxVkYM5tx-31" value="Yes" style="text;strokeColor=none;align=center;fillColor=none;html=1;verticalAlign=middle;whiteSpace=wrap;rounded=0;" parent="1" vertex="1">
          <mxGeometry x="187" y="931" width="60" height="30" as="geometry" />
        </mxCell>
        <mxCell id="n7q72ueywLvYxVkYM5tx-32" value="" style="endArrow=classic;html=1;rounded=0;" parent="1" edge="1">
          <mxGeometry width="50" height="50" relative="1" as="geometry">
            <mxPoint x="157.00000000000006" y="1102" as="sourcePoint" />
            <mxPoint x="157.00000000000006" y="1172" as="targetPoint" />
          </mxGeometry>
        </mxCell>
        <mxCell id="n7q72ueywLvYxVkYM5tx-33" value="" style="endArrow=classic;html=1;rounded=0;" parent="1" edge="1">
          <mxGeometry width="50" height="50" relative="1" as="geometry">
            <mxPoint x="156.44000000000005" y="1257" as="sourcePoint" />
            <mxPoint x="156.44000000000005" y="1327" as="targetPoint" />
          </mxGeometry>
        </mxCell>
        <mxCell id="n7q72ueywLvYxVkYM5tx-34" value="" style="endArrow=classic;html=1;rounded=0;" parent="1" edge="1">
          <mxGeometry width="50" height="50" relative="1" as="geometry">
            <mxPoint x="156.44000000000005" y="1412" as="sourcePoint" />
            <mxPoint x="156.44000000000005" y="1482" as="targetPoint" />
          </mxGeometry>
        </mxCell>
        <mxCell id="n7q72ueywLvYxVkYM5tx-35" value="" style="endArrow=classic;html=1;rounded=0;" parent="1" edge="1">
          <mxGeometry width="50" height="50" relative="1" as="geometry">
            <mxPoint x="155.44000000000005" y="1566" as="sourcePoint" />
            <mxPoint x="155.44000000000005" y="1636" as="targetPoint" />
          </mxGeometry>
        </mxCell>
        <mxCell id="n7q72ueywLvYxVkYM5tx-36" value="Display &quot;Thanks for&amp;nbsp;&lt;div&gt;shopping with&lt;/div&gt;&lt;div&gt;National Railway&quot; message&amp;nbsp;&lt;div&gt;&lt;br&gt;&lt;/div&gt;&lt;/div&gt;" style="shape=parallelogram;html=1;strokeWidth=2;perimeter=parallelogramPerimeter;whiteSpace=wrap;rounded=1;arcSize=12;size=0.23;" parent="1" vertex="1">
          <mxGeometry x="250" y="1931" width="209" height="81" as="geometry" />
        </mxCell>
        <mxCell id="n7q72ueywLvYxVkYM5tx-37" value="Generate receipt (user name,&lt;div&gt;destination, total amount of tickets, total price)&amp;nbsp;&lt;/div&gt;" style="rounded=1;whiteSpace=wrap;html=1;absoluteArcSize=1;arcSize=14;strokeWidth=2;" parent="1" vertex="1">
          <mxGeometry x="-133" y="1926" width="184" height="82" as="geometry" />
        </mxCell>
        <mxCell id="n7q72ueywLvYxVkYM5tx-38" value="" style="endArrow=classic;html=1;rounded=0;" parent="1" edge="1">
          <mxGeometry width="50" height="50" relative="1" as="geometry">
            <mxPoint x="-42.37999999999988" y="2009" as="sourcePoint" />
            <mxPoint x="-42.37999999999988" y="2079" as="targetPoint" />
          </mxGeometry>
        </mxCell>
        <mxCell id="n7q72ueywLvYxVkYM5tx-39" value="Print receipt to fil&amp;nbsp;" style="shape=parallelogram;html=1;strokeWidth=2;perimeter=parallelogramPerimeter;whiteSpace=wrap;rounded=1;arcSize=12;size=0.23;" parent="1" vertex="1">
          <mxGeometry x="-156" y="2081" width="209" height="81" as="geometry" />
        </mxCell>
        <mxCell id="n7q72ueywLvYxVkYM5tx-40" value="No" style="text;strokeColor=none;align=center;fillColor=none;html=1;verticalAlign=middle;whiteSpace=wrap;rounded=0;" parent="1" vertex="1">
          <mxGeometry x="-107" y="810" width="60" height="30" as="geometry" />
        </mxCell>
        <mxCell id="n7q72ueywLvYxVkYM5tx-41" value="" style="edgeStyle=segmentEdgeStyle;endArrow=classic;html=1;curved=0;rounded=0;endSize=8;startSize=8;exitX=1;exitY=0.5;exitDx=0;exitDy=0;exitPerimeter=0;" parent="1" edge="1">
          <mxGeometry width="50" height="50" relative="1" as="geometry">
            <mxPoint x="478" y="963" as="sourcePoint" />
            <mxPoint x="945" y="1001" as="targetPoint" />
          </mxGeometry>
        </mxCell>
        <mxCell id="n7q72ueywLvYxVkYM5tx-42" value="" style="endArrow=classic;html=1;rounded=0;" parent="1" edge="1">
          <mxGeometry width="50" height="50" relative="1" as="geometry">
            <mxPoint x="741.44" y="1833" as="sourcePoint" />
            <mxPoint x="741.44" y="1903" as="targetPoint" />
          </mxGeometry>
        </mxCell>
        <mxCell id="n7q72ueywLvYxVkYM5tx-43" value="Yes" style="text;strokeColor=none;align=center;fillColor=none;html=1;verticalAlign=middle;whiteSpace=wrap;rounded=0;" parent="1" vertex="1">
          <mxGeometry x="562" y="1952" width="60" height="30" as="geometry" />
        </mxCell>
        <mxCell id="n7q72ueywLvYxVkYM5tx-44" value="Did the user select destination 3&amp;nbsp;&lt;div&gt;(Birmingham)&lt;/div&gt;" style="strokeWidth=2;html=1;shape=mxgraph.flowchart.decision;whiteSpace=wrap;" parent="1" vertex="1">
          <mxGeometry x="832" y="1004" width="230" height="160" as="geometry" />
        </mxCell>
        <mxCell id="n7q72ueywLvYxVkYM5tx-45" value="Did the user request a receipt&amp;nbsp;" style="strokeWidth=2;html=1;shape=mxgraph.flowchart.decision;whiteSpace=wrap;" parent="1" vertex="1">
          <mxGeometry x="627" y="1905" width="230" height="160" as="geometry" />
        </mxCell>
        <mxCell id="n7q72ueywLvYxVkYM5tx-46" value="" style="edgeStyle=segmentEdgeStyle;endArrow=classic;html=1;curved=0;rounded=0;endSize=8;startSize=8;exitX=0;exitY=0.5;exitDx=0;exitDy=0;exitPerimeter=0;" parent="1" edge="1">
          <mxGeometry width="50" height="50" relative="1" as="geometry">
            <mxPoint x="627" y="1985" as="sourcePoint" />
            <mxPoint x="542" y="2044" as="targetPoint" />
          </mxGeometry>
        </mxCell>
        <mxCell id="n7q72ueywLvYxVkYM5tx-47" value="" style="edgeStyle=segmentEdgeStyle;endArrow=classic;html=1;curved=0;rounded=0;endSize=8;startSize=8;" parent="1" edge="1">
          <mxGeometry width="50" height="50" relative="1" as="geometry">
            <mxPoint x="858" y="1984" as="sourcePoint" />
            <mxPoint x="944" y="2049" as="targetPoint" />
            <Array as="points">
              <mxPoint x="944" y="1984" />
              <mxPoint x="944" y="2044" />
            </Array>
          </mxGeometry>
        </mxCell>
        <mxCell id="n7q72ueywLvYxVkYM5tx-48" value="No" style="text;strokeColor=none;align=center;fillColor=none;html=1;verticalAlign=middle;whiteSpace=wrap;rounded=0;" parent="1" vertex="1">
          <mxGeometry x="872" y="1952" width="60" height="30" as="geometry" />
        </mxCell>
        <mxCell id="n7q72ueywLvYxVkYM5tx-49" value="Add total cost of tickets &amp;amp;&lt;div&gt;quantity to basket&lt;/div&gt;" style="rounded=1;whiteSpace=wrap;html=1;absoluteArcSize=1;arcSize=14;strokeWidth=2;" parent="1" vertex="1">
          <mxGeometry x="656" y="1450" width="184" height="82" as="geometry" />
        </mxCell>
        <mxCell id="n7q72ueywLvYxVkYM5tx-50" value="Display transaction&amp;nbsp;&lt;div&gt;summary&lt;/div&gt;&lt;div&gt;(destination, amount of&amp;nbsp;&lt;/div&gt;&lt;div&gt;tickets &amp;amp; total price)&lt;/div&gt;" style="shape=parallelogram;html=1;strokeWidth=2;perimeter=parallelogramPerimeter;whiteSpace=wrap;rounded=1;arcSize=12;size=0.23;" parent="1" vertex="1">
          <mxGeometry x="643" y="1606" width="200" height="81" as="geometry" />
        </mxCell>
        <mxCell id="n7q72ueywLvYxVkYM5tx-51" value="Enter the required amount&amp;nbsp;&lt;div&gt;of tickets you would like to&amp;nbsp;&lt;/div&gt;&lt;div&gt;purchase&lt;/div&gt;" style="shape=parallelogram;html=1;strokeWidth=2;perimeter=parallelogramPerimeter;whiteSpace=wrap;rounded=1;arcSize=12;size=0.23;" parent="1" vertex="1">
          <mxGeometry x="638" y="1144" width="220" height="78" as="geometry" />
        </mxCell>
        <mxCell id="n7q72ueywLvYxVkYM5tx-52" value="Ask the user if they would&amp;nbsp;&lt;div&gt;like a receipt (yes/no)&lt;/div&gt;" style="shape=parallelogram;html=1;strokeWidth=2;perimeter=parallelogramPerimeter;whiteSpace=wrap;rounded=1;arcSize=12;size=0.23;" parent="1" vertex="1">
          <mxGeometry x="640" y="1759" width="200" height="73" as="geometry" />
        </mxCell>
        <mxCell id="n7q72ueywLvYxVkYM5tx-53" value="Multiply cost of ticket by&amp;nbsp;&lt;div&gt;quantity&amp;nbsp;&lt;/div&gt;" style="rounded=1;whiteSpace=wrap;html=1;absoluteArcSize=1;arcSize=14;strokeWidth=2;" parent="1" vertex="1">
          <mxGeometry x="654" y="1295" width="184" height="82" as="geometry" />
        </mxCell>
        <mxCell id="n7q72ueywLvYxVkYM5tx-54" value="" style="edgeStyle=segmentEdgeStyle;endArrow=classic;html=1;curved=0;rounded=0;endSize=8;startSize=8;exitX=0;exitY=0.5;exitDx=0;exitDy=0;exitPerimeter=0;" parent="1" source="n7q72ueywLvYxVkYM5tx-44" edge="1">
          <mxGeometry width="50" height="50" relative="1" as="geometry">
            <mxPoint x="823" y="1083" as="sourcePoint" />
            <mxPoint x="743" y="1143" as="targetPoint" />
          </mxGeometry>
        </mxCell>
        <mxCell id="n7q72ueywLvYxVkYM5tx-55" value="Yes" style="text;strokeColor=none;align=center;fillColor=none;html=1;verticalAlign=middle;whiteSpace=wrap;rounded=0;" parent="1" vertex="1">
          <mxGeometry x="772" y="1052" width="60" height="30" as="geometry" />
        </mxCell>
        <mxCell id="n7q72ueywLvYxVkYM5tx-56" value="" style="endArrow=classic;html=1;rounded=0;" parent="1" edge="1">
          <mxGeometry width="50" height="50" relative="1" as="geometry">
            <mxPoint x="742" y="1223" as="sourcePoint" />
            <mxPoint x="742" y="1293" as="targetPoint" />
          </mxGeometry>
        </mxCell>
        <mxCell id="n7q72ueywLvYxVkYM5tx-57" value="" style="endArrow=classic;html=1;rounded=0;" parent="1" edge="1">
          <mxGeometry width="50" height="50" relative="1" as="geometry">
            <mxPoint x="741.44" y="1378" as="sourcePoint" />
            <mxPoint x="741.44" y="1448" as="targetPoint" />
          </mxGeometry>
        </mxCell>
        <mxCell id="n7q72ueywLvYxVkYM5tx-58" value="" style="endArrow=classic;html=1;rounded=0;" parent="1" edge="1">
          <mxGeometry width="50" height="50" relative="1" as="geometry">
            <mxPoint x="741.44" y="1533" as="sourcePoint" />
            <mxPoint x="741.44" y="1603" as="targetPoint" />
          </mxGeometry>
        </mxCell>
        <mxCell id="n7q72ueywLvYxVkYM5tx-59" value="" style="endArrow=classic;html=1;rounded=0;" parent="1" edge="1">
          <mxGeometry width="50" height="50" relative="1" as="geometry">
            <mxPoint x="740.44" y="1687" as="sourcePoint" />
            <mxPoint x="740.44" y="1757" as="targetPoint" />
          </mxGeometry>
        </mxCell>
        <mxCell id="n7q72ueywLvYxVkYM5tx-60" value="Display &quot;Thanks for&amp;nbsp;&lt;div&gt;shopping with&lt;/div&gt;&lt;div&gt;National Railway&quot; message&amp;nbsp;&lt;div&gt;&lt;br&gt;&lt;/div&gt;&lt;/div&gt;" style="shape=parallelogram;html=1;strokeWidth=2;perimeter=parallelogramPerimeter;whiteSpace=wrap;rounded=1;arcSize=12;size=0.23;" parent="1" vertex="1">
          <mxGeometry x="835" y="2052" width="209" height="81" as="geometry" />
        </mxCell>
        <mxCell id="n7q72ueywLvYxVkYM5tx-61" value="Generate receipt (user name,&lt;div&gt;destination, total amount of tickets, total price)&amp;nbsp;&lt;/div&gt;" style="rounded=1;whiteSpace=wrap;html=1;absoluteArcSize=1;arcSize=14;strokeWidth=2;" parent="1" vertex="1">
          <mxGeometry x="452" y="2047" width="184" height="82" as="geometry" />
        </mxCell>
        <mxCell id="n7q72ueywLvYxVkYM5tx-62" value="" style="endArrow=classic;html=1;rounded=0;" parent="1" edge="1">
          <mxGeometry width="50" height="50" relative="1" as="geometry">
            <mxPoint x="542.6200000000001" y="2130" as="sourcePoint" />
            <mxPoint x="542.6200000000001" y="2200" as="targetPoint" />
          </mxGeometry>
        </mxCell>
        <mxCell id="n7q72ueywLvYxVkYM5tx-63" value="Print receipt to file&amp;nbsp;" style="shape=parallelogram;html=1;strokeWidth=2;perimeter=parallelogramPerimeter;whiteSpace=wrap;rounded=1;arcSize=12;size=0.23;" parent="1" vertex="1">
          <mxGeometry x="429" y="2202" width="209" height="81" as="geometry" />
        </mxCell>
        <mxCell id="n7q72ueywLvYxVkYM5tx-64" value="No" style="text;strokeColor=none;align=center;fillColor=none;html=1;verticalAlign=middle;whiteSpace=wrap;rounded=0;" parent="1" vertex="1">
          <mxGeometry x="478" y="931" width="60" height="30" as="geometry" />
        </mxCell>
      </root>
    </mxGraphModel>
  </diagram>
</mxfile>
